<svg xmlns="http://www.w3.org/2000/svg" viewBox="0 0 2208 1242"><title>MAP_01</title><g id="solid_BG" data-name="solid BG"><rect x="-33.29" y="-45.25" width="2304.23" height="1344.13" style="fill:#b2b2b2"/></g><g id="Layer_2" data-name="Layer 2"><rect x="1082.82" y="113.77" width="42" height="1020.1" style="fill:#757575"/><rect x="1619.87" y="113.77" width="42" height="1020.1" style="fill:#757575"/><rect x="545.77" y="113.77" width="42" height="1020.1" style="fill:#757575"/></g><g id="Layer_3" data-name="Layer 3"><rect x="267.74" y="600.09" width="1659.17" height="29.47" style="fill:#757575"/><rect x="267.74" y="984.39" width="1659.17" height="29.47" style="fill:#757575"/><rect x="267.74" y="215.78" width="1659.17" height="29.47" style="fill:#757575"/></g><g id="Layer_4" data-name="Layer 4"><rect x="1123.32" y="400.57" width="369.57" height="29.47" transform="translate(892.81 1723.41) rotate(-90)" style="fill:#757575"/><rect x="1314.18" y="407.93" width="326.7" height="29.47" style="fill:#757575"/><rect x="1459" y="841.93" width="168.18" height="29.47" style="fill:#757575"/></g><g id="locations"><circle cx="519" cy="271.25" r="22" style="fill:#fff;stroke:#000;stroke-miterlimit:10;stroke-width:2px"/><circle cx="613" cy="400.67" r="22" style="fill:#fff;stroke:#000;stroke-miterlimit:10;stroke-width:2px"/><circle cx="615" cy="491.32" r="22" style="fill:#fff;stroke:#000;stroke-miterlimit:10;stroke-width:2px"/><circle cx="678.49" cy="571.67" r="22" style="fill:#fff;stroke:#000;stroke-miterlimit:10;stroke-width:2px"/><circle cx="700.49" cy="657.29" r="22" style="fill:#fff;stroke:#000;stroke-miterlimit:10;stroke-width:2px"/><circle cx="849" cy="657.29" r="22" style="fill:#fff;stroke:#000;stroke-miterlimit:10;stroke-width:2px"/><circle cx="1054.82" cy="657.29" r="22" style="fill:#fff;stroke:#000;stroke-miterlimit:10;stroke-width:2px"/><circle cx="1156.82" cy="574.67" r="22" style="fill:#fff;stroke:#000;stroke-miterlimit:10;stroke-width:2px"/><circle cx="1236.1" cy="573.67" r="22" style="fill:#fff;stroke:#000;stroke-miterlimit:10;stroke-width:2px"/><circle cx="1593.87" cy="657.29" r="22" style="fill:#fff;stroke:#000;stroke-miterlimit:10;stroke-width:2px"/><circle cx="1535" cy="574.67" r="22" style="fill:#fff;stroke:#000;stroke-miterlimit:10;stroke-width:2px"/><circle cx="1491" cy="657.29" r="22" style="fill:#fff;stroke:#000;stroke-miterlimit:10;stroke-width:2px"/><circle cx="1687.88" cy="834.67" r="22" style="fill:#fff;stroke:#000;stroke-miterlimit:10;stroke-width:2px"/><circle cx="1469" cy="856.67" r="22" style="fill:#fff;stroke:#000;stroke-miterlimit:10;stroke-width:2px"/><circle cx="1593.87" cy="521.67" r="22" style="fill:#fff;stroke:#000;stroke-miterlimit:10;stroke-width:2px"/><circle cx="1591.87" cy="378.67" r="22" style="fill:#fff;stroke:#000;stroke-miterlimit:10;stroke-width:2px"/><circle cx="1591.87" cy="271.25" r="22" style="fill:#fff;stroke:#000;stroke-miterlimit:10;stroke-width:2px"/></g><g id="text"><text transform="translate(574.95 898.53) rotate(-90)" style="font-size:24px;fill:#fff;font-family:Arial-BoldMT, Arial;font-weight:700">POLK ST</text><text transform="translate(1111.18 898.53) rotate(-90)" style="font-size:24px;fill:#fff;font-family:Arial-BoldMT, Arial;font-weight:700">LARKIN ST</text><text transform="translate(1650.06 796.53) rotate(-90)" style="font-size:24px;fill:#fff;font-family:Arial-BoldMT, Arial;font-weight:700">HYDE ST</text><text transform="translate(792 237.97)" style="font-size:24px;fill:#fff;font-family:Arial-BoldMT, Arial;font-weight:700">UNION ST</text><text transform="translate(792 623.74)" style="font-size:24px;fill:#fff;font-family:Arial-BoldMT, Arial;font-weight:700">GREEN ST</text><text transform="translate(792 1005.57)" style="font-size:24px;fill:#fff;font-family:Arial-BoldMT, Arial;font-weight:700"><tspan style="letter-spacing:-0.07421875em">V</tspan><tspan x="14.23" y="0">ALLEJO ST</tspan></text><text transform="translate(641.84 409.99)" style="font-size:24px;font-family:Arial-BoldMT, Arial;font-weight:700">Alhambra<tspan x="110.7" y="0" style="fill:#fff"> </tspan></text><text transform="translate(1408.17 583.09)" style="font-size:24px;font-family:Arial-BoldMT, Arial;font-weight:700">My Nails</text><text transform="translate(1438.04 278.43)" style="font-size:24px;font-family:Arial-BoldMT, Arial;font-weight:700">Swensen<tspan x="104.04" y="0" style="letter-spacing:-0.037109375em">’</tspan><tspan x="109.82" y="0">s</tspan></text></g><g id="Layer_8" data-name="Layer 8"><rect x="599.8" y="387.02" width="26.79" height="26.79" style="fill:none;stroke:#fff;stroke-miterlimit:10;stroke-width:2px"/><rect x="599.8" y="387.02" width="26.79" height="26.79" transform="translate(-103.53 550.87) rotate(-45)" style="fill:none;stroke:#fff;stroke-miterlimit:10;stroke-width:2px"/><circle cx="613.2" cy="400.41" r="9.13" style="fill:none;stroke:#fff;stroke-miterlimit:10;stroke-width:2px"/></g><g id="arrows"><line x1="541" y1="271.25" x2="543" y2="271.25" style="fill:none;stroke:#000;stroke-miterlimit:10;stroke-width:3px"/><line x1="547.12" y1="271.25" x2="610.94" y2="271.25" style="fill:none;stroke:#000;stroke-miterlimit:10;stroke-width:3px;stroke-dasharray:4.117647171020508,4.117647171020508"/><line x1="613" y1="271.25" x2="615" y2="271.25" style="fill:none;stroke:#000;stroke-miterlimit:10;stroke-width:3px"/><line x1="613.44" y1="346.48" x2="613.49" y2="344.48" style="fill:none;stroke:#000;stroke-miterlimit:10;stroke-width:3px"/><line x1="613.57" y1="340.29" x2="614.92" y2="275.34" style="fill:none;stroke:#000;stroke-miterlimit:10;stroke-width:3px;stroke-dasharray:4.1907477378845215,4.1907477378845215"/><line x1="614.96" y1="273.25" x2="615" y2="271.25" style="fill:none;stroke:#000;stroke-miterlimit:10;stroke-width:3px"/><polygon points="628.49 342.41 613 368 598.58 341.79 628.49 342.41"/><line x1="611.76" y1="440.15" x2="611.8" y2="438.15" style="fill:none;stroke:#000;stroke-miterlimit:10;stroke-width:3px"/><line x1="611.89" y1="433.65" x2="612.03" y2="426.91" style="fill:none;stroke:#000;stroke-miterlimit:10;stroke-width:3px;stroke-dasharray:4.494698524475098,4.494698524475098"/><line x1="612.08" y1="424.67" x2="612.12" y2="422.67" style="fill:none;stroke:#000;stroke-miterlimit:10;stroke-width:3px"/><polygon points="626.8 436.08 611.31 461.67 596.89 435.46 626.8 436.08"/><line x1="622.62" y1="574.22" x2="620.62" y2="574.18" style="fill:none;stroke:#000;stroke-miterlimit:10;stroke-width:3px"/><line x1="618.32" y1="574.13" x2="614.87" y2="574.06" style="fill:none;stroke:#000;stroke-miterlimit:10;stroke-width:3px;stroke-dasharray:2.303279399871826,2.303279399871826"/><line x1="613.71" y1="574.04" x2="611.71" y2="574" style="fill:none;stroke:#000;stroke-miterlimit:10;stroke-width:3px"/><polygon points="618.55 559.18 644.15 574.67 617.94 589.09 618.55 559.18"/><line x1="611.71" y1="574" x2="611.71" y2="513.32" style="fill:none;stroke:#000;stroke-miterlimit:10;stroke-width:3px;stroke-dasharray:4,4"/><line x1="699.94" y1="602.68" x2="699.98" y2="600.68" style="fill:none;stroke:#000;stroke-miterlimit:10;stroke-width:3px"/><line x1="700.07" y1="596.11" x2="700.4" y2="580.12" style="fill:none;stroke:#000;stroke-miterlimit:10;stroke-width:3px;stroke-dasharray:4.571374416351318,4.571374416351318"/><line x1="700.45" y1="577.83" x2="700.49" y2="575.83" style="fill:none;stroke:#000;stroke-miterlimit:10;stroke-width:3px"/><polygon points="714.98 598.62 699.49 624.21 685.07 598 714.98 598.62"/><line x1="796.54" y1="657.29" x2="794.54" y2="657.29" style="fill:none;stroke:#000;stroke-miterlimit:10;stroke-width:3px"/><line x1="790.42" y1="657.29" x2="726.55" y2="657.29" style="fill:none;stroke:#000;stroke-miterlimit:10;stroke-width:3px;stroke-dasharray:4.120264530181885,4.120264530181885"/><line x1="724.49" y1="657.29" x2="722.49" y2="657.29" style="fill:none;stroke:#000;stroke-miterlimit:10;stroke-width:3px"/><polygon points="792.16 642.33 818.07 657.28 792.16 672.24 792.16 642.33"/><line x1="1000.17" y1="657.29" x2="998.17" y2="657.29" style="fill:none;stroke:#000;stroke-miterlimit:10;stroke-width:3px"/><line x1="994.13" y1="657.29" x2="875.02" y2="657.29" style="fill:none;stroke:#000;stroke-miterlimit:10;stroke-width:3px;stroke-dasharray:4.037683486938477,4.037683486938477"/><line x1="873" y1="657.29" x2="871" y2="657.29" style="fill:none;stroke:#000;stroke-miterlimit:10;stroke-width:3px"/><polygon points="995.79 642.33 1021.7 657.28 995.79 672.24 995.79 642.33"/><line x1="1160.5" y1="657.29" x2="1158.5" y2="657.29" style="fill:none;stroke:#000;stroke-miterlimit:10;stroke-width:3px"/><line x1="1154.37" y1="657.29" x2="1082.07" y2="657.29" style="fill:none;stroke:#000;stroke-miterlimit:10;stroke-width:3px;stroke-dasharray:4.131575107574463,4.131575107574463"/><line x1="1080" y1="657.29" x2="1078" y2="657.29" style="fill:none;stroke:#000;stroke-miterlimit:10;stroke-width:3px"/><line x1="1160.5" y1="621.61" x2="1160.5" y2="623.61" style="fill:none;stroke:#000;stroke-miterlimit:10;stroke-width:3px"/><line x1="1160.5" y1="628.14" x2="1160.5" y2="653.02" style="fill:none;stroke:#000;stroke-miterlimit:10;stroke-width:3px;stroke-dasharray:4.524348735809326,4.524348735809326"/><line x1="1160.5" y1="655.29" x2="1160.5" y2="657.29" style="fill:none;stroke:#000;stroke-miterlimit:10;stroke-width:3px"/><polygon points="1145.54 625.99 1160.5 600.09 1175.46 625.99 1145.54 625.99"/><line x1="1191.15" y1="574.56" x2="1189.15" y2="574.52" style="fill:none;stroke:#000;stroke-miterlimit:10;stroke-width:3px"/><line x1="1186.85" y1="574.47" x2="1183.4" y2="574.4" style="fill:none;stroke:#000;stroke-miterlimit:10;stroke-width:3px;stroke-dasharray:2.303279399871826,2.303279399871826"/><line x1="1182.25" y1="574.37" x2="1180.25" y2="574.33" style="fill:none;stroke:#000;stroke-miterlimit:10;stroke-width:3px"/><polygon points="1187.09 559.51 1212.68 575 1186.47 589.42 1187.09 559.51"/><line x1="1442.16" y1="656.95" x2="1440.16" y2="656.95" style="fill:none;stroke:#000;stroke-miterlimit:10;stroke-width:3px"/><line x1="1436.2" y1="656.95" x2="1240.08" y2="656.95" style="fill:none;stroke:#000;stroke-miterlimit:10;stroke-width:3px;stroke-dasharray:3.9620327949523926,3.9620327949523926"/><line x1="1238.1" y1="656.95" x2="1236.1" y2="656.95" style="fill:none;stroke:#000;stroke-miterlimit:10;stroke-width:3px"/><polygon points="1437.79 641.99 1463.69 656.95 1437.79 671.91 1437.79 641.99"/><line x1="1236.1" y1="656.83" x2="1236.1" y2="596.14" style="fill:none;stroke:#000;stroke-miterlimit:10;stroke-width:3px;stroke-dasharray:4,4"/><line x1="1536.25" y1="657.15" x2="1534.25" y2="657.15" style="fill:none;stroke:#000;stroke-miterlimit:10;stroke-width:3px"/><line x1="1530.4" y1="657.15" x2="1516.92" y2="657.15" style="fill:none;stroke:#000;stroke-miterlimit:10;stroke-width:3px;stroke-dasharray:3.8506596088409424,3.8506596088409424"/><line x1="1515" y1="657.15" x2="1513" y2="657.15" style="fill:none;stroke:#000;stroke-miterlimit:10;stroke-width:3px"/><line x1="1536.25" y1="621.48" x2="1536.25" y2="623.48" style="fill:none;stroke:#000;stroke-miterlimit:10;stroke-width:3px"/><line x1="1536.25" y1="628.01" x2="1536.25" y2="652.89" style="fill:none;stroke:#000;stroke-miterlimit:10;stroke-width:3px;stroke-dasharray:4.524348735809326,4.524348735809326"/><line x1="1536.25" y1="655.15" x2="1536.25" y2="657.15" style="fill:none;stroke:#000;stroke-miterlimit:10;stroke-width:3px"/><polygon points="1521.29 625.86 1536.25 599.95 1551.21 625.86 1521.29 625.86"/><line x1="1595.13" y1="576.27" x2="1593.13" y2="576.27" style="fill:none;stroke:#000;stroke-miterlimit:10;stroke-width:3px"/><line x1="1589.34" y1="576.27" x2="1560.9" y2="576.27" style="fill:none;stroke:#000;stroke-miterlimit:10;stroke-width:3px;stroke-dasharray:3.7919538021087646,3.7919538021087646"/><line x1="1559" y1="576.27" x2="1557" y2="576.27" style="fill:none;stroke:#000;stroke-miterlimit:10;stroke-width:3px"/><line x1="1594.13" y1="566.6" x2="1594.13" y2="568.6" style="fill:none;stroke:#000;stroke-miterlimit:10;stroke-width:3px"/><line x1="1594.13" y1="572.67" x2="1594.13" y2="574.67" style="fill:none;stroke:#000;stroke-miterlimit:10;stroke-width:3px"/><polygon points="1579.17 570.97 1594.13 545.07 1609.09 570.97 1579.17 570.97"/><line x1="1593.13" y1="423.91" x2="1593.13" y2="425.91" style="fill:none;stroke:#000;stroke-miterlimit:10;stroke-width:3px"/><line x1="1593.13" y1="430.03" x2="1593.13" y2="493.89" style="fill:none;stroke:#000;stroke-miterlimit:10;stroke-width:3px;stroke-dasharray:4.120264530181885,4.120264530181885"/><line x1="1593.13" y1="495.95" x2="1593.13" y2="497.95" style="fill:none;stroke:#000;stroke-miterlimit:10;stroke-width:3px"/><polygon points="1578.17 428.29 1593.13 402.38 1608.09 428.29 1578.17 428.29"/><line x1="1591.87" y1="318.15" x2="1591.87" y2="320.15" style="fill:none;stroke:#000;stroke-miterlimit:10;stroke-width:3px"/><line x1="1591.87" y1="323.95" x2="1591.87" y2="352.45" style="fill:none;stroke:#000;stroke-miterlimit:10;stroke-width:3px;stroke-dasharray:3.800119161605835,3.800119161605835"/><line x1="1591.87" y1="354.35" x2="1591.87" y2="356.35" style="fill:none;stroke:#000;stroke-miterlimit:10;stroke-width:3px"/><polygon points="1576.91 322.53 1591.87 296.63 1606.83 322.53 1576.91 322.53"/><line x1="1616.88" y1="271.25" x2="1618.88" y2="271.25" style="fill:none;stroke:#000;stroke-miterlimit:10;stroke-width:3px"/><line x1="1622.99" y1="271.25" x2="1686.82" y2="271.25" style="fill:none;stroke:#000;stroke-miterlimit:10;stroke-width:3px;stroke-dasharray:4.117647171020508,4.117647171020508"/><line x1="1688.88" y1="271.25" x2="1690.88" y2="271.25" style="fill:none;stroke:#000;stroke-miterlimit:10;stroke-width:3px"/><line x1="1690.88" y1="791.14" x2="1690.88" y2="789.14" style="fill:none;stroke:#000;stroke-miterlimit:10;stroke-width:3px"/><line x1="1690.88" y1="785.14" x2="1690.88" y2="275.25" style="fill:none;stroke:#000;stroke-miterlimit:10;stroke-width:3px;stroke-dasharray:3.999145269393921,3.999145269393921"/><line x1="1690.88" y1="273.25" x2="1690.88" y2="271.25" style="fill:none;stroke:#000;stroke-miterlimit:10;stroke-width:3px"/><polygon points="1705.84 786.76 1690.88 812.67 1675.92 786.76 1705.84 786.76"/><line x1="1512.53" y1="856.67" x2="1514.53" y2="856.67" style="fill:none;stroke:#000;stroke-miterlimit:10;stroke-width:3px"/><line x1="1518.44" y1="856.67" x2="1680.78" y2="856.67" style="fill:none;stroke:#000;stroke-miterlimit:10;stroke-width:3px;stroke-dasharray:3.911820650100708,3.911820650100708"/><line x1="1682.74" y1="856.67" x2="1684.74" y2="856.67" style="fill:none;stroke:#000;stroke-miterlimit:10;stroke-width:3px"/><polygon points="1516.91 871.63 1491 856.67 1516.91 841.71 1516.91 871.63"/><line x1="1595.13" y1="834.67" x2="1593.13" y2="834.67" style="fill:none;stroke:#000;stroke-miterlimit:10;stroke-width:3px"/><line x1="1589.16" y1="834.67" x2="1479.99" y2="834.67" style="fill:none;stroke:#000;stroke-miterlimit:10;stroke-width:3px;stroke-dasharray:3.9696474075317383,3.9696474075317383"/><line x1="1478.01" y1="834.67" x2="1476.01" y2="834.67" style="fill:none;stroke:#000;stroke-miterlimit:10;stroke-width:3px"/><line x1="1595.13" y1="700.81" x2="1595.13" y2="702.81" style="fill:none;stroke:#000;stroke-miterlimit:10;stroke-width:3px"/><line x1="1595.13" y1="706.75" x2="1595.13" y2="830.7" style="fill:none;stroke:#000;stroke-miterlimit:10;stroke-width:3px;stroke-dasharray:3.9349617958068848,3.9349617958068848"/><line x1="1595.13" y1="832.67" x2="1595.13" y2="834.67" style="fill:none;stroke:#000;stroke-miterlimit:10;stroke-width:3px"/><polygon points="1580.17 705.19 1595.13 679.28 1610.09 705.19 1580.17 705.19"/></g></svg>