<svg xmlns="http://www.w3.org/2000/svg" viewBox="0 0 2208 1242"><title>Start_page</title><g id="solid_BG" data-name="solid BG"><rect x="-47.29" y="-50.25" width="2304.23" height="1344.13" style="fill:#b2b2b2"/></g><g id="pattern"><rect x="952.09" y="467.81" width="309" height="309" style="fill:none;stroke:#000;stroke-miterlimit:10;stroke-width:4px"/><line x1="866.44" y1="863.56" x2="1348.94" y2="381.06" style="fill:none;stroke:#000;stroke-miterlimit:10;stroke-width:4px"/><line x1="868.34" y1="383.97" x2="1350.84" y2="866.47" style="fill:none;stroke:#000;stroke-miterlimit:10;stroke-width:4px"/><line x1="1751.27" y1="622.36" x2="468.78" y2="622.36" style="fill:none;stroke:#000;stroke-miterlimit:10;stroke-width:4px"/><line x1="1107.68" y1="1001.04" x2="1107.68" y2="243.68" style="fill:none;stroke:#000;stroke-miterlimit:10;stroke-width:4px"/><circle cx="1106.64" cy="622.26" r="154.55" style="fill:none;stroke:#000;stroke-miterlimit:10;stroke-width:4px"/><circle cx="1106.64" cy="467.81" r="154.55" style="fill:none;stroke:#000;stroke-miterlimit:10;stroke-width:4px"/><circle cx="1106.64" cy="776.81" r="154.55" style="fill:none;stroke:#000;stroke-miterlimit:10;stroke-width:4px"/><circle cx="1262.66" cy="620.79" r="154.55" style="fill:none;stroke:#000;stroke-miterlimit:10;stroke-width:4px"/><circle cx="954.04" cy="624.22" r="154.55" style="fill:none;stroke:#000;stroke-miterlimit:10;stroke-width:4px"/><rect x="997.31" y="512.98" width="218.56" height="218.56" style="fill:none;stroke:#000;stroke-miterlimit:10;stroke-width:4px"/><rect x="997.31" y="512.98" width="218.56" height="218.56" transform="translate(764.12 -600.22) rotate(45)" style="fill:none;stroke:#000;stroke-miterlimit:10;stroke-width:4px"/><circle cx="436.78" cy="620.79" r="32" style="fill:#fff;stroke:#000;stroke-miterlimit:10;stroke-width:4px"/><circle cx="1782.4" cy="625.22" r="32" style="fill:#fff;stroke:#000;stroke-miterlimit:10;stroke-width:4px"/><circle cx="1107.31" cy="213.82" r="32" style="fill:#fff;stroke:#000;stroke-miterlimit:10;stroke-width:4px"/><circle cx="1107.31" cy="1035.6" r="32" style="fill:#fff;stroke:#000;stroke-miterlimit:10;stroke-width:4px"/></g></svg>